<svg width="46" height="31" viewBox="0 0 46 31" fill="none" xmlns="http://www.w3.org/2000/svg">
<path d="M18.0263 11.7111C18.0263 14.237 17.4539 16.5525 16.3092 18.6574C15.2039 20.7241 13.8618 22.5228 12.2829 24.0537C10.7039 25.6228 8.9671 27.0389 7.07237 28.3019C5.17763 29.5265 3.65789 30.4259 2.51316 31L0.5 27.613C2.11842 26.6944 3.65789 25.7568 5.11842 24.8C6.61842 23.8049 7.76316 22.8673 8.55263 21.987C9.61842 20.8389 10.4671 19.6525 11.0987 18.4278C11.7303 17.1648 12.125 15.5191 12.2829 13.4907H9.44079C6.95395 13.4907 5.01974 12.8784 3.63816 11.6537C2.25658 10.429 1.56579 8.72593 1.56579 6.54444C1.56579 4.97531 2.19737 3.50185 3.46053 2.12407C4.72368 0.708025 6.44079 0 8.61184 0C11.9671 0 14.375 1.09074 15.8355 3.27222C17.2961 5.41543 18.0263 8.2284 18.0263 11.7111Z" fill="#004238"/>
<path d="M45.5 11.7111C45.5 14.237 44.9276 16.5525 43.7829 18.6574C42.6776 20.7241 41.3355 22.5228 39.7566 24.0537C38.1776 25.6228 36.4408 27.0389 34.5461 28.3019C32.6513 29.5265 31.1316 30.4259 29.9868 31L27.9737 27.613C29.5921 26.6944 31.1316 25.7568 32.5921 24.8C34.0921 23.8049 35.2368 22.8673 36.0263 21.987C37.0921 20.8389 37.9408 19.6525 38.5724 18.4278C39.2039 17.1648 39.5987 15.5191 39.7566 13.4907H36.9145C34.4276 13.4907 32.4934 12.8784 31.1118 11.6537C29.7303 10.429 29.0395 8.72593 29.0395 6.54444C29.0395 4.97531 29.6711 3.50185 30.9342 2.12407C32.1974 0.708025 33.9145 0 36.0855 0C39.4408 0 41.8487 1.09074 43.3092 3.27222C44.7697 5.41543 45.5 8.2284 45.5 11.7111Z" fill="#004238"/>
</svg>
