<svg width="331" height="72" viewBox="0 0 331 72" fill="none" xmlns="http://www.w3.org/2000/svg">
<path d="M42.9792 63.2479C44.5923 64.2351 46.325 64.6494 48.1772 64.4907C49.0497 64.4168 50.0974 64.1992 51.3204 63.838C53.8371 63.0941 56.0404 61.8325 57.93 60.0532C60.8348 57.3189 63.0455 54.0229 64.5622 50.1653C66.1346 46.1673 67.0468 42.1848 67.2986 38.2178C67.691 32.0385 66.4374 26.3341 63.538 21.1045C61.1799 16.8524 58.0378 13.3624 54.1115 10.6345C51.1125 8.54975 47.8256 7.0411 44.251 6.10858C43.223 5.83955 42.1732 5.62678 41.1013 5.47029C34.9317 4.56457 29.0043 5.43331 23.3191 8.07652C23.3095 8.08081 23.1482 8.16334 22.8352 8.32412C21.8941 8.8086 20.9846 8.77484 20.1067 8.22283C19.7627 8.00631 19.4872 7.7003 19.2803 7.30478C19.0971 6.95321 19.0006 6.56627 18.9909 6.14396C18.9738 5.32613 19.2509 4.67175 19.8222 4.18084C20.0655 3.97076 20.6491 3.65456 21.573 3.23224C26.987 0.757317 32.6984 -0.296323 38.7073 0.0713255C43.014 0.335003 47.1209 1.33076 51.0278 3.0586C51.9785 3.47877 52.9362 3.95843 53.9009 4.49758C61.9184 8.98439 67.4621 15.5651 70.5319 24.2397C72.054 28.5432 72.6976 33.0702 72.4629 37.8207C72.4114 38.8625 72.3219 39.9301 72.1944 41.0234C71.6338 45.8521 70.2747 50.4568 68.117 54.8375C66.3292 58.469 64.0123 61.541 61.1665 64.0534C58.6948 66.2346 55.8748 67.7829 52.7063 68.6983C51.6773 68.9952 50.6344 69.1994 49.5776 69.3109C48.406 69.4352 47.3492 69.4872 46.407 69.4668C44.3083 69.4207 42.3714 68.8789 40.5964 67.8414C38.844 66.8167 37.4666 65.42 36.4644 63.6515C35.8106 62.496 35.3031 61.2789 34.9418 60.0002C34.3802 58.0022 34.0415 55.9759 33.9257 53.9211C33.9239 53.8886 33.911 53.8577 33.8891 53.8335C33.8672 53.8092 33.8376 53.7931 33.8051 53.7877C29.4866 53.0481 25.9205 51.1209 23.1069 48.006C22.3791 47.2011 21.736 46.3441 21.1775 45.4352C19.8334 43.2486 18.9899 40.8776 18.6469 38.3223C18.5493 37.5902 18.499 36.5205 18.4957 35.1132C18.4882 31.0679 18.4856 27.0227 18.4877 22.9775C18.4888 21.2379 18.5241 20.2266 18.5938 19.9436C18.8543 18.8868 19.5424 18.2576 20.6582 18.0561C20.8694 18.0186 21.7295 17.9998 23.2387 17.9998C24.9644 17.9998 26.6907 17.9998 28.4174 17.9998C29.56 17.9998 30.3913 18.3943 30.9111 19.1831C31.2316 19.6698 31.3742 20.1944 31.3388 20.7572C31.3023 21.351 31.0655 21.8789 30.6281 22.3409C30.1554 22.8403 29.5525 23.0954 28.8194 23.1062C27.1183 23.1319 25.4355 23.1447 23.7709 23.1447C23.7347 23.1447 23.6999 23.1591 23.6743 23.1848C23.6486 23.2104 23.6342 23.2452 23.6342 23.2814C23.6342 26.8389 23.6342 30.3702 23.6342 33.8752C23.6342 35.6148 23.6514 36.6872 23.6857 37.0923C23.9483 40.1643 25.1536 42.8005 27.3016 45.0011C29.3028 47.0505 31.7273 48.289 34.5753 48.7167C35.6375 48.8764 36.7056 48.9026 37.7796 48.7955C40.8333 48.4932 43.4438 47.2552 45.6111 45.0815C47.6659 43.0203 48.8766 40.5432 49.2431 37.6502C49.3203 37.0404 49.3589 35.9701 49.3589 34.4395C49.3589 30.7062 49.3589 26.9884 49.3589 23.2862C49.3589 23.2487 49.344 23.2127 49.3175 23.1862C49.2909 23.1597 49.2549 23.1447 49.2174 23.1447C47.8004 23.1447 46.4054 23.1447 45.0323 23.1447C44.1866 23.1447 43.5955 23.0804 43.2589 22.9518C42.648 22.7171 42.1892 22.2857 41.8827 21.6575C41.664 21.2095 41.5906 20.7373 41.6624 20.2411C41.7299 19.7705 41.9111 19.3482 42.2058 18.9741C42.5253 18.569 42.932 18.2887 43.4262 18.1333C43.7091 18.0443 44.185 17.9993 44.8539 17.9982C47.0105 17.9961 49.167 17.9987 51.3236 18.0062C52.0632 18.0095 52.6104 18.0866 52.9652 18.2378C53.5912 18.5057 54.0312 18.9538 54.2852 19.5819C54.431 19.9442 54.5038 20.5332 54.5038 21.3488C54.5038 26.1551 54.5044 30.9608 54.5055 35.7659C54.5055 36.8356 54.4202 37.8946 54.2498 38.9429C54.0794 39.9891 53.8136 41.0127 53.4523 42.0138C52.1361 45.6635 49.8429 48.6111 46.5726 50.8566C44.3485 52.384 41.8918 53.3578 39.2025 53.778C39.1656 53.7837 39.1319 53.8024 39.1074 53.8307C39.083 53.8589 39.0694 53.895 39.069 53.9324C39.0347 57.0879 39.9817 59.8748 41.91 62.2929C42.2219 62.6841 42.5783 63.0024 42.9792 63.2479Z" fill="white"/>
<path d="M10.0468 51.9339C10.06 51.9563 10.0806 51.9736 10.1051 51.9829C10.1296 51.9923 10.1566 51.9931 10.1819 51.9853C10.8882 51.7667 11.5956 51.6134 12.3041 51.5255C13.0169 51.4365 13.7378 51.4328 14.4666 51.5142C16.7604 51.7683 18.731 52.6622 20.3785 54.196C21.1706 54.9356 21.8324 55.7733 22.3641 56.709C23.4681 58.6534 23.8781 60.7698 23.594 63.0582C23.3979 64.6381 22.8545 66.0894 21.9637 67.4121C21.3667 68.2985 20.6427 69.0826 19.7916 69.7643C18.1517 71.0805 16.2706 71.8164 14.1483 71.9718C13.0635 72.0511 12.0003 71.9632 10.9584 71.7081C9.12124 71.259 7.53328 70.3747 6.19453 69.0552C5.42707 68.2985 4.78932 67.4437 4.28125 66.4908C3.37768 64.7951 2.99556 62.9944 3.1349 61.0886C3.30532 58.7531 4.15585 56.7031 5.68646 54.9388C5.71605 54.9047 5.73414 54.8621 5.73818 54.8171C5.74222 54.772 5.732 54.7269 5.70897 54.688C2.61344 49.4809 0.891493 43.9094 0.543138 37.9734C0.48097 36.9251 0.473467 35.8543 0.520629 34.761C0.919361 25.5838 4.27965 17.6622 10.6015 10.9963C11.1685 10.3982 11.8266 10.1179 12.5759 10.1554C13.204 10.1876 13.7511 10.4046 14.2174 10.8066C14.7115 11.2321 14.9934 11.7975 15.0631 12.5028C15.1339 13.2306 14.8954 13.8839 14.3476 14.4627C9.20163 19.8949 6.32636 26.3137 5.72183 33.7192C5.63394 34.8007 5.60822 35.8715 5.64466 36.9316C5.83331 42.2941 7.30069 47.2949 10.0468 51.9339ZM18.4797 61.7301C18.4797 60.3678 17.9385 59.0612 16.9751 58.0978C16.0117 57.1345 14.7052 56.5933 13.3428 56.5933C11.9804 56.5933 10.6738 57.1345 9.71044 58.0978C8.74708 59.0612 8.20587 60.3678 8.20587 61.7301C8.20587 63.0925 8.74708 64.3991 9.71044 65.3625C10.6738 66.3258 11.9804 66.867 13.3428 66.867C14.7052 66.867 16.0117 66.3258 16.9751 65.3625C17.9385 64.3991 18.4797 63.0925 18.4797 61.7301Z" fill="white"/>
<path d="M115.15 49H109.55L96.8699 29.84V49H91.2699V21.04H96.8699L109.55 40.24V21.04H115.15V49ZM119.244 37.84C119.244 35.6 119.684 33.6133 120.564 31.88C121.471 30.1467 122.684 28.8133 124.204 27.88C125.751 26.9467 127.471 26.48 129.364 26.48C131.017 26.48 132.457 26.8133 133.684 27.48C134.937 28.1467 135.937 28.9867 136.684 30V26.84H142.324V49H136.684V45.76C135.964 46.8 134.964 47.6667 133.684 48.36C132.431 49.0267 130.977 49.36 129.324 49.36C127.457 49.36 125.751 48.88 124.204 47.92C122.684 46.96 121.471 45.6133 120.564 43.88C119.684 42.12 119.244 40.1067 119.244 37.84ZM136.684 37.92C136.684 36.56 136.417 35.4 135.884 34.44C135.351 33.4533 134.631 32.7067 133.724 32.2C132.817 31.6667 131.844 31.4 130.804 31.4C129.764 31.4 128.804 31.6533 127.924 32.16C127.044 32.6667 126.324 33.4133 125.764 34.4C125.231 35.36 124.964 36.5067 124.964 37.84C124.964 39.1733 125.231 40.3467 125.764 41.36C126.324 42.3467 127.044 43.1067 127.924 43.64C128.831 44.1733 129.791 44.44 130.804 44.44C131.844 44.44 132.817 44.1867 133.724 43.68C134.631 43.1467 135.351 42.4 135.884 41.44C136.417 40.4533 136.684 39.28 136.684 37.92ZM146.433 35C146.433 32.2533 147.047 29.8 148.273 27.64C149.527 25.4533 151.22 23.76 153.353 22.56C155.513 21.3333 157.927 20.72 160.593 20.72C163.713 20.72 166.447 21.52 168.793 23.12C171.14 24.72 172.78 26.9333 173.713 29.76H167.273C166.633 28.4267 165.727 27.4267 164.553 26.76C163.407 26.0933 162.073 25.76 160.553 25.76C158.927 25.76 157.473 26.1467 156.193 26.92C154.94 27.6667 153.953 28.7333 153.233 30.12C152.54 31.5067 152.193 33.1333 152.193 35C152.193 36.84 152.54 38.4667 153.233 39.88C153.953 41.2667 154.94 42.3467 156.193 43.12C157.473 43.8667 158.927 44.24 160.553 44.24C162.073 44.24 163.407 43.9067 164.553 43.24C165.727 42.5467 166.633 41.5333 167.273 40.2H173.713C172.78 43.0533 171.14 45.28 168.793 46.88C166.473 48.4533 163.74 49.24 160.593 49.24C157.927 49.24 155.513 48.64 153.353 47.44C151.22 46.2133 149.527 44.52 148.273 42.36C147.047 40.2 146.433 37.7467 146.433 35ZM188.337 49.36C186.203 49.36 184.283 48.8933 182.577 47.96C180.87 47 179.523 45.6533 178.537 43.92C177.577 42.1867 177.097 40.1867 177.097 37.92C177.097 35.6533 177.59 33.6533 178.577 31.92C179.59 30.1867 180.963 28.8533 182.697 27.92C184.43 26.96 186.363 26.48 188.497 26.48C190.63 26.48 192.563 26.96 194.297 27.92C196.03 28.8533 197.39 30.1867 198.377 31.92C199.39 33.6533 199.897 35.6533 199.897 37.92C199.897 40.1867 199.377 42.1867 198.337 43.92C197.323 45.6533 195.937 47 194.177 47.96C192.443 48.8933 190.497 49.36 188.337 49.36ZM188.337 44.48C189.35 44.48 190.297 44.24 191.177 43.76C192.083 43.2533 192.803 42.5067 193.337 41.52C193.87 40.5333 194.137 39.3333 194.137 37.92C194.137 35.8133 193.577 34.2 192.457 33.08C191.363 31.9333 190.017 31.36 188.417 31.36C186.817 31.36 185.47 31.9333 184.377 33.08C183.31 34.2 182.777 35.8133 182.777 37.92C182.777 40.0267 183.297 41.6533 184.337 42.8C185.403 43.92 186.737 44.48 188.337 44.48ZM216.284 26.52C218.924 26.52 221.058 27.36 222.684 29.04C224.311 30.6933 225.124 33.0133 225.124 36V49H219.524V36.76C219.524 35 219.084 33.6533 218.204 32.72C217.324 31.76 216.124 31.28 214.604 31.28C213.058 31.28 211.831 31.76 210.924 32.72C210.044 33.6533 209.604 35 209.604 36.76V49H204.004V26.84H209.604V29.6C210.351 28.64 211.298 27.8933 212.444 27.36C213.618 26.8 214.898 26.52 216.284 26.52ZM238.93 49.36C237.116 49.36 235.49 49.04 234.05 48.4C232.61 47.7333 231.463 46.84 230.61 45.72C229.783 44.6 229.33 43.36 229.25 42H234.89C234.996 42.8533 235.41 43.56 236.13 44.12C236.876 44.68 237.796 44.96 238.89 44.96C239.956 44.96 240.783 44.7467 241.37 44.32C241.983 43.8933 242.29 43.3467 242.29 42.68C242.29 41.96 241.916 41.4267 241.17 41.08C240.45 40.7067 239.29 40.3067 237.69 39.88C236.036 39.48 234.676 39.0667 233.61 38.64C232.57 38.2133 231.663 37.56 230.89 36.68C230.143 35.8 229.77 34.6133 229.77 33.12C229.77 31.8933 230.116 30.7733 230.81 29.76C231.53 28.7467 232.543 27.9467 233.85 27.36C235.183 26.7733 236.743 26.48 238.53 26.48C241.17 26.48 243.276 27.1467 244.85 28.48C246.423 29.7867 247.29 31.56 247.45 33.8H242.09C242.01 32.92 241.636 32.2267 240.97 31.72C240.33 31.1867 239.463 30.92 238.37 30.92C237.356 30.92 236.57 31.1067 236.01 31.48C235.476 31.8533 235.21 32.3733 235.21 33.04C235.21 33.7867 235.583 34.36 236.33 34.76C237.076 35.1333 238.236 35.52 239.81 35.92C241.41 36.32 242.73 36.7333 243.77 37.16C244.81 37.5867 245.703 38.2533 246.45 39.16C247.223 40.04 247.623 41.2133 247.65 42.68C247.65 43.96 247.29 45.1067 246.57 46.12C245.876 47.1333 244.863 47.9333 243.53 48.52C242.223 49.08 240.69 49.36 238.93 49.36ZM273.167 26.84V49H267.527V46.2C266.807 47.16 265.86 47.92 264.687 48.48C263.54 49.0133 262.287 49.28 260.927 49.28C259.193 49.28 257.66 48.92 256.327 48.2C254.993 47.4533 253.94 46.3733 253.167 44.96C252.42 43.52 252.047 41.8133 252.047 39.84V26.84H257.647V39.04C257.647 40.8 258.087 42.16 258.967 43.12C259.847 44.0533 261.047 44.52 262.567 44.52C264.113 44.52 265.327 44.0533 266.207 43.12C267.087 42.16 267.527 40.8 267.527 39.04V26.84H273.167ZM284.292 19.4V49H278.692V19.4H284.292ZM296.345 31.44V42.16C296.345 42.9067 296.518 43.4533 296.865 43.8C297.238 44.12 297.851 44.28 298.705 44.28H301.305V49H297.785C293.065 49 290.705 46.7067 290.705 42.12V31.44H288.065V26.84H290.705V21.36H296.345V26.84H301.305V31.44H296.345ZM303.892 37.84C303.892 35.6 304.332 33.6133 305.212 31.88C306.119 30.1467 307.332 28.8133 308.852 27.88C310.399 26.9467 312.119 26.48 314.012 26.48C315.666 26.48 317.106 26.8133 318.332 27.48C319.586 28.1467 320.586 28.9867 321.332 30V26.84H326.972V49H321.332V45.76C320.612 46.8 319.612 47.6667 318.332 48.36C317.079 49.0267 315.626 49.36 313.972 49.36C312.106 49.36 310.399 48.88 308.852 47.92C307.332 46.96 306.119 45.6133 305.212 43.88C304.332 42.12 303.892 40.1067 303.892 37.84ZM321.332 37.92C321.332 36.56 321.066 35.4 320.532 34.44C319.999 33.4533 319.279 32.7067 318.372 32.2C317.466 31.6667 316.492 31.4 315.452 31.4C314.412 31.4 313.452 31.6533 312.572 32.16C311.692 32.6667 310.972 33.4133 310.412 34.4C309.879 35.36 309.612 36.5067 309.612 37.84C309.612 39.1733 309.879 40.3467 310.412 41.36C310.972 42.3467 311.692 43.1067 312.572 43.64C313.479 44.1733 314.439 44.44 315.452 44.44C316.492 44.44 317.466 44.1867 318.372 43.68C319.279 43.1467 319.999 42.4 320.532 41.44C321.066 40.4533 321.332 39.28 321.332 37.92Z" fill="white"/>
</svg>
